<mxfile host="app.diagrams.net" modified="2022-01-01T10:32:48.570Z" agent="5.0 (Windows)" etag="TdcA5lIFGVe3uk9DYZhe" version="14.8.0" type="github">
  <diagram id="fcl0szVWHYnqaN0FsvoB" name="Page-1">
    <mxGraphModel dx="1422" dy="780" grid="1" gridSize="10" guides="1" tooltips="1" connect="1" arrows="1" fold="1" page="1" pageScale="1" pageWidth="827" pageHeight="1169" math="0" shadow="0">
      <root>
        <mxCell id="0" />
        <mxCell id="1" parent="0" />
        <mxCell id="HltO6rFZMix8E34axF6i-1" value="&lt;div&gt;Deneme 01.01.2022&lt;/div&gt;" style="rounded=0;whiteSpace=wrap;html=1;" vertex="1" parent="1">
          <mxGeometry x="354" y="110" width="120" height="60" as="geometry" />
        </mxCell>
      </root>
    </mxGraphModel>
  </diagram>
</mxfile>
